# xmcd CD database file
#
# Track frame offsets:
#	150
#	32112
#	58762
#	116252
#	132687
#	163075
#	199670
#	218887
#	243362
#
# Disc length: 3690 seconds
#
# Revision: 0
# Processed by: cddbd v1.5.1PL2 Copyright (c) Steve Scherf et al.
# Submitted via: CDex 1.51
#
DISCID=830e6809
DTITLE=TRIO SUPREME - MASQUERADE IS OVER
DYEAR=1996
DGENRE=Jazz
TTITLE0=CARAVAN
TTITLE1=AUTUMN LEAVES
TTITLE2=THE MASQUERADE IS OVER
TTITLE3=DA RIDDIM MAN (THE RYETHM MAN)
TTITLE4=NOCTURN
TTITLE5=WHO CARES?
TTITLE6=GENTEEL LOVE
TTITLE7=SATIN DOLL
TTITLE8=FEEL LIKE MAKING LOVE
EXTD=YEAR: 1996
EXTT0=
EXTT1=
EXTT2=
EXTT3=
EXTT4=
EXTT5=
EXTT6=
EXTT7=
EXTT8=
PLAYORDER=
